<svg width="18" height="18" viewBox="0 0 18 18" fill="none" xmlns="http://www.w3.org/2000/svg">
<path fill-rule="evenodd" clip-rule="evenodd" d="M1.9929 10.0177C1.9929 6.28975 5.01498 3.26768 8.7429 3.26768C12.4708 3.26768 15.4929 6.28975 15.4929 10.0177C15.4929 13.7456 12.4708 16.7677 8.7429 16.7677C5.01498 16.7677 1.9929 13.7456 1.9929 10.0177ZM3.1179 10.0177C3.1179 13.1243 5.6363 15.6427 8.7429 15.6427C10.2347 15.6427 11.6655 15.05 12.7204 13.9952C13.7753 12.9403 14.3679 11.5095 14.3679 10.0177C14.3679 6.91108 11.8495 4.39268 8.7429 4.39268C5.6363 4.39268 3.1179 6.91108 3.1179 10.0177Z" fill="#3C3F44"/>
<path d="M6.9804 7.16018C6.75877 6.95366 6.4134 6.95975 6.19919 7.17396C5.98498 7.38817 5.97888 7.73354 6.1854 7.95518L8.1804 9.95018V13.0177C8.1804 13.3283 8.43224 13.5802 8.7429 13.5802C9.05356 13.5802 9.3054 13.3283 9.3054 13.0177V9.71768C9.30527 9.56854 9.24592 9.42557 9.1404 9.32018L6.9804 7.16018Z" fill="#3C3F44"/>
<path d="M15.8904 4.39268C14.9644 3.1578 13.7345 2.1837 12.3204 1.56518C12.1824 1.50262 12.025 1.49839 11.8838 1.55344C11.7426 1.6085 11.6296 1.71819 11.5704 1.85768C11.5056 1.99541 11.5003 2.1537 11.5556 2.29549C11.6109 2.43729 11.722 2.55016 11.8629 2.60768C13.0981 3.15116 14.1726 4.00352 14.9829 5.08268C15.0891 5.22432 15.2559 5.30768 15.4329 5.30768C15.5547 5.30823 15.6733 5.26869 15.7704 5.19518C15.8953 5.10661 15.9787 4.97094 16.0014 4.81949C16.024 4.66805 15.9839 4.51391 15.8904 4.39268Z" fill="#3C3F44"/>
<path d="M2.4954 5.06768C3.30569 3.98852 4.38018 3.13616 5.6154 2.59268C5.75631 2.53516 5.86742 2.42229 5.92272 2.28049C5.97802 2.1387 5.97267 1.98041 5.9079 1.84268C5.84868 1.70319 5.73569 1.5935 5.59452 1.53844C5.45334 1.48339 5.29592 1.48762 5.1579 1.55018C3.74477 2.17399 2.51739 3.15332 1.5954 4.39268C1.4334 4.63417 1.48217 4.95934 1.7079 5.14268C1.80501 5.21619 1.92361 5.25573 2.0454 5.25518C2.2161 5.2643 2.38169 5.19531 2.4954 5.06768Z" fill="#3C3F44"/>
</svg>
