<svg width="24" height="24" viewBox="0 0 24 24" fill="none" xmlns="http://www.w3.org/2000/svg">
<path d="M21 13.31C20.7201 13.0266 20.3383 12.8671 19.94 12.8671C19.5417 12.8671 19.1599 13.0266 18.88 13.31L17.48 14.7V9.22999C17.48 8.40156 16.8084 7.72999 15.98 7.72999C15.1516 7.72999 14.48 8.40156 14.48 9.22999V14.7L13.09 13.31C12.499 12.7593 11.578 12.7755 11.0067 13.3467C10.4355 13.918 10.4193 14.839 10.97 15.43L14.97 19.38C15.0421 19.4487 15.1189 19.5122 15.2 19.57L15.28 19.62L15.45 19.71H15.57L15.73 19.76C15.928 19.8001 16.132 19.8001 16.33 19.76L16.51 19.71H16.61L16.79 19.61H16.87L17.09 19.42L21.09 15.47C21.3693 15.1739 21.5172 14.7777 21.5002 14.371C21.4833 13.9644 21.3029 13.5818 21 13.31Z" fill="#EAE9F3"/>
<path d="M10.94 10.69C11.2198 10.9733 11.6019 11.1319 12 11.13C12.3988 11.1354 12.7822 10.9762 13.06 10.69C13.3434 10.4101 13.5029 10.0283 13.5029 9.62999C13.5029 9.23167 13.3434 8.84992 13.06 8.56999L9.05999 4.61999C8.91812 4.48106 8.75206 4.36923 8.56999 4.28999C8.21549 4.15643 7.8245 4.15643 7.46999 4.28999C7.29366 4.36891 7.13411 4.48094 6.99999 4.61999L2.99999 8.61999C2.42053 9.20787 2.42053 10.1521 2.99999 10.74C3.27993 11.0234 3.66167 11.1829 4.05999 11.1829C4.45832 11.1829 4.84006 11.0234 5.11999 10.74L6.54999 9.29999V14.77C6.54999 15.5984 7.22156 16.27 8.04999 16.27C8.87842 16.27 9.54999 15.5984 9.54999 14.77V9.29999L10.94 10.69Z" fill="#EAE9F3"/>
</svg>
