<svg width="10" height="10" viewBox="0 0 8 10" fill="none" xmlns="http://www.w3.org/2000/svg">
<path d="M3.78337 9.03811C3.61843 9.03819 3.45997 8.96473 3.3417 8.83335L0.425032 5.50002C0.181321 5.22114 0.181321 4.76937 0.425032 4.49049L3.3417 1.15716C3.50024 0.976827 3.73091 0.906852 3.94683 0.973596C4.16275 1.04034 4.33111 1.23366 4.3885 1.48074C4.44588 1.72782 4.38357 1.99111 4.22503 2.17145L2.37818 4.2857H7.13332C7.4785 4.2857 7.75832 4.60549 7.75832 4.99998C7.75832 5.39447 7.4785 5.71427 7.13332 5.71427H2.38022L4.22503 7.81907C4.40355 8.02334 4.45691 8.33034 4.36027 8.59709C4.26363 8.86383 4.03598 9.03786 3.78337 9.03811Z" fill="#EAE9F3"/>
</svg>
