<svg width="20" height="13" viewBox="0 0 20 13" fill="none" xmlns="http://www.w3.org/2000/svg">
<path d="M12.8917 6.50005C12.8917 7.2309 12.587 7.93182 12.0447 8.44861C11.5024 8.9654 10.7669 9.25573 9.99999 9.25573C9.23306 9.25573 8.49754 8.9654 7.95524 8.44861C7.41294 7.93182 7.10828 7.2309 7.10828 6.50005C7.10828 5.7692 7.41294 5.06828 7.95524 4.55149C8.49754 4.0347 9.23306 3.74437 9.99999 3.74437C10.7669 3.74437 11.5024 4.0347 12.0447 4.55149C12.587 5.06828 12.8917 5.7692 12.8917 6.50005Z" fill="#E94E1B"/>
<path fill-rule="evenodd" clip-rule="evenodd" d="M0.746521 6.5C0.746521 6.5 4.21657 0.4375 9.99999 0.4375C15.7834 0.4375 19.2535 6.5 19.2535 6.5C19.2535 6.5 15.7834 12.5625 9.99999 12.5625C4.21657 12.5625 0.746521 6.5 0.746521 6.5ZM9.99999 10.358C11.0737 10.358 12.1034 9.95149 12.8626 9.22799C13.6219 8.50448 14.0484 7.52319 14.0484 6.5C14.0484 5.47681 13.6219 4.49552 12.8626 3.77201C12.1034 3.04851 11.0737 2.64205 9.99999 2.64205C8.92629 2.64205 7.89657 3.04851 7.13735 3.77201C6.37813 4.49552 5.9516 5.47681 5.9516 6.5C5.9516 7.52319 6.37813 8.50448 7.13735 9.22799C7.89657 9.95149 8.92629 10.358 9.99999 10.358Z" fill="#E94E1B"/>
</svg>
