<svg width="40" height="43" viewBox="0 0 40 43" fill="none" xmlns="http://www.w3.org/2000/svg">
<path d="M39.5 21.1918C39.5 32.6472 30.7427 41.8836 20 41.8836C9.25732 41.8836 0.5 32.6472 0.5 21.1918C0.5 9.73638 9.25732 0.5 20 0.5C30.7427 0.5 39.5 9.73638 39.5 21.1918Z" fill="white" stroke="#E2E8F0"/>
<path fill-rule="evenodd" clip-rule="evenodd" d="M15 21.3335C15.3682 21.3335 15.6667 21.632 15.6667 22.0002V24.6668C15.6667 24.8436 15.7369 25.0132 15.8619 25.1382C15.9869 25.2633 16.1565 25.3335 16.3333 25.3335H25.6667C25.8435 25.3335 26.013 25.2633 26.1381 25.1382C26.2631 25.0132 26.3333 24.8436 26.3333 24.6668V22.0002C26.3333 21.632 26.6318 21.3335 27 21.3335C27.3682 21.3335 27.6667 21.632 27.6667 22.0002V24.6668C27.6667 25.1973 27.4559 25.706 27.0809 26.081C26.7058 26.4561 26.1971 26.6668 25.6667 26.6668H16.3333C15.8029 26.6668 15.2942 26.4561 14.9191 26.081C14.544 25.706 14.3333 25.1973 14.3333 24.6668V22.0002C14.3333 21.632 14.6318 21.3335 15 21.3335Z" fill="#3C50E0"/>
<path fill-rule="evenodd" clip-rule="evenodd" d="M20.5286 13.5288C20.7889 13.2684 21.2111 13.2684 21.4714 13.5288L24.8047 16.8621C25.0651 17.1224 25.0651 17.5446 24.8047 17.8049C24.5444 18.0653 24.1223 18.0653 23.8619 17.8049L21 14.943L18.1381 17.8049C17.8777 18.0653 17.4556 18.0653 17.1953 17.8049C16.9349 17.5446 16.9349 17.1224 17.1953 16.8621L20.5286 13.5288Z" fill="#3C50E0"/>
<path fill-rule="evenodd" clip-rule="evenodd" d="M21 13.3335C21.3682 13.3335 21.6667 13.632 21.6667 14.0002V22.0002C21.6667 22.3684 21.3682 22.6668 21 22.6668C20.6318 22.6668 20.3333 22.3684 20.3333 22.0002V14.0002C20.3333 13.632 20.6318 13.3335 21 13.3335Z" fill="#3C50E0"/>
</svg>
