<svg width="20" height="20" viewBox="0 0 20 20" fill="none" xmlns="http://www.w3.org/2000/svg">
<g opacity="0.8">
<path fill-rule="evenodd" clip-rule="evenodd" d="M3.72039 12.8869C4.50179 12.1055 5.5616 11.6665 6.66667 11.6665H13.3333C14.4384 11.6665 15.4982 12.1055 16.2796 12.8869C17.061 13.6683 17.5 14.7281 17.5 15.8332V17.4998C17.5 17.9601 17.1269 18.3332 16.6667 18.3332C16.2064 18.3332 15.8333 17.9601 15.8333 17.4998V15.8332C15.8333 15.1701 15.5699 14.5342 15.1011 14.0654C14.6323 13.5966 13.9964 13.3332 13.3333 13.3332H6.66667C6.00363 13.3332 5.36774 13.5966 4.8989 14.0654C4.43006 14.5342 4.16667 15.1701 4.16667 15.8332V17.4998C4.16667 17.9601 3.79357 18.3332 3.33333 18.3332C2.8731 18.3332 2.5 17.9601 2.5 17.4998V15.8332C2.5 14.7281 2.93899 13.6683 3.72039 12.8869Z" fill="#64748B"/>
<path fill-rule="evenodd" clip-rule="evenodd" d="M9.99998 3.33317C8.61927 3.33317 7.49998 4.45246 7.49998 5.83317C7.49998 7.21388 8.61927 8.33317 9.99998 8.33317C11.3807 8.33317 12.5 7.21388 12.5 5.83317C12.5 4.45246 11.3807 3.33317 9.99998 3.33317ZM5.83331 5.83317C5.83331 3.53198 7.69879 1.6665 9.99998 1.6665C12.3012 1.6665 14.1666 3.53198 14.1666 5.83317C14.1666 8.13436 12.3012 9.99984 9.99998 9.99984C7.69879 9.99984 5.83331 8.13436 5.83331 5.83317Z" fill="#64748B"/>
</g>
</svg>
