<svg width="14" height="16" viewBox="0 0 14 16" fill="none" xmlns="http://www.w3.org/2000/svg">
<path d="M12.2744 5.16923L11.7698 15.3319C11.7535 15.7011 11.4605 16 11.1186 16H2.8814C2.53954 16 2.24651 15.7011 2.23023 15.3319L1.72558 5.16923C1.7093 4.78242 1.98605 4.44835 2.34419 4.43077C2.70233 4.41319 3.01163 4.71209 3.02791 5.0989L3.5 14.5934H10.5163L10.9884 5.0989C11.0047 4.71209 11.314 4.41319 11.6721 4.43077C12.014 4.44835 12.2907 4.78242 12.2744 5.16923ZM14 2.81319C14 3.2 13.707 3.51648 13.3488 3.51648H0.651163C0.293023 3.51648 0 3.2 0 2.81319C0 2.42637 0.293023 2.10989 0.651163 2.10989H4.23256V0.527473C4.23256 0.193407 4.44419 0 4.75349 0H9.24651C9.55581 0 9.76744 0.193407 9.76744 0.527473V2.10989H13.3488C13.707 2.10989 14 2.42637 14 2.81319ZM5.37209 2.10989H8.62791V1.23077H5.37209V2.10989ZM5.64884 13.5385C5.97442 13.5385 6.21861 13.2044 6.21861 12.8703L6.05581 5.27473C6.05581 4.94066 5.79535 4.65934 5.46977 4.65934C5.16046 4.65934 4.9 4.94066 4.91628 5.29231L5.07907 12.9055C5.07907 13.2396 5.33954 13.5385 5.64884 13.5385ZM8.33488 13.5385C8.64419 13.5385 8.90465 13.2571 8.90465 12.9231L9.06744 5.32747C9.06744 4.99341 8.82326 4.69451 8.51395 4.69451C8.18837 4.69451 7.94419 4.95824 7.92791 5.29231L7.76512 12.8879C7.74884 13.2396 8.0093 13.5385 8.33488 13.5385C8.3186 13.5385 8.3186 13.5385 8.33488 13.5385Z" fill="#E94E1B"/>
</svg>
